<svg width="30" height="21" viewBox="0 0 30 21" fill="none" xmlns="http://www.w3.org/2000/svg">
<path d="M9 8C9 7.17157 8.32843 6.5 7.5 6.5C6.67157 6.5 6 7.17157 6 8L9 8ZM7.5 19L6.43934 20.0607C7.02513 20.6464 7.97487 20.6464 8.56066 20.0607L7.5 19ZM3.06066 12.4393C2.47487 11.8536 1.52513 11.8536 0.93934 12.4393C0.353554 13.0251 0.353554 13.9749 0.93934 14.5607L3.06066 12.4393ZM14.0607 14.5607C14.6464 13.9749 14.6464 13.0251 14.0607 12.4393C13.4749 11.8536 12.5251 11.8536 11.9393 12.4393L14.0607 14.5607ZM6 8L6 19L9 19L9 8L6 8ZM0.93934 14.5607L6.43934 20.0607L8.56066 17.9393L3.06066 12.4393L0.93934 14.5607ZM8.56066 20.0607L14.0607 14.5607L11.9393 12.4393L6.43934 17.9393L8.56066 20.0607Z" fill="#6D6D64"/>
<path d="M21 13C21 13.8284 21.6716 14.5 22.5 14.5C23.3284 14.5 24 13.8284 24 13L21 13ZM22.5 2L23.5607 0.93934C22.9749 0.353554 22.0251 0.353554 21.4393 0.93934L22.5 2ZM26.9393 8.56066C27.5251 9.14645 28.4749 9.14645 29.0607 8.56066C29.6464 7.97487 29.6464 7.02513 29.0607 6.43934L26.9393 8.56066ZM15.9393 6.43934C15.3536 7.02513 15.3536 7.97487 15.9393 8.56066C16.5251 9.14645 17.4749 9.14645 18.0607 8.56066L15.9393 6.43934ZM24 13L24 2L21 2L21 13L24 13ZM29.0607 6.43934L23.5607 0.93934L21.4393 3.06066L26.9393 8.56066L29.0607 6.43934ZM21.4393 0.93934L15.9393 6.43934L18.0607 8.56066L23.5607 3.06066L21.4393 0.93934Z" fill="#6D6D64"/>
</svg>
